<svg xmlns="http://www.w3.org/2000/svg" viewBox="0 0 409.6 307.2"><title>correo</title><path d="M1164.6,643a50.84,50.84,0,0,1-6.57,24.63L1028.7,522.93,1156.62,411a50.82,50.82,0,0,1,8,27.2ZM959.8,549.2l178-155.75a50.53,50.53,0,0,0-24.4-6.45H806.2a50.4,50.4,0,0,0-24.39,6.45Zm49.63-9.42-41.21,36.07a12.84,12.84,0,0,1-16.85,0l-41.21-36.07-131,146.54a50.54,50.54,0,0,0,27,7.88h307.2a50.54,50.54,0,0,0,27-7.88ZM763,411a50.82,50.82,0,0,0-8,27.2V643a50.73,50.73,0,0,0,6.57,24.63L890.89,522.9Zm0,0" transform="translate(-755 -387)"/></svg>