<svg xmlns="http://www.w3.org/2000/svg" xmlns:xlink="http://www.w3.org/1999/xlink" viewBox="0 0 72.53 52.63"><defs><style>.a{fill:none;}.b{clip-path:url(#a);}</style><clipPath id="a" transform="translate(-923 -514)"><rect class="a" x="923" y="514" width="72.96" height="53"/></clipPath></defs><title>nacido</title><g class="b"><path d="M935.86,554.64h-8.52s-4.34,0-4.34,6.61c.21,4.27,3.54,5,4.13,5h17.36s4.35,0,4.54-5.21c0-.2,0,0,0-.2,0-.78,0-4.76,0-4.76a1.19,1.19,0,0,1,1-1.21h13.6a.4.4,0,0,1,.39.36l3.21,7.26c1.19,3,3.52,5.15,7.41,3.75,3.68-1.32,3.88-4.24,3.23-6.29l-8-24.2c-1.2-2.87-4.22-4.54-8-4.54H943.2c-10.13,0-18.63,11.8-7.13,23.15a.21.21,0,0,1-.21.33Zm0,0" transform="translate(-923 -514)"/></g><path d="M995.53,526.57A12.58,12.58,0,1,1,983,514a12.57,12.57,0,0,1,12.57,12.57Zm0,0" transform="translate(-923 -514)"/></svg>